<svg xmlns="http://www.w3.org/2000/svg" viewBox="0 0 854 300" width="854" height="300">
<defs>
  <radialGradient id="glow" cx="50%" cy="50%" r="50%">
    <stop offset="0%" stop-color="#378ADD" stop-opacity="0.3"/>
    <stop offset="100%" stop-color="#378ADD" stop-opacity="0"/>
  </radialGradient>
</defs>
<style>
  @keyframes f1 { 0%,100%{transform:translate(0,0)} 50%{transform:translate(4.0px,4.0px)} }
  .n1 { animation: f1 5.4s ease-in-out infinite; }
  @keyframes f2 { 0%,100%{transform:translate(0,0)} 50%{transform:translate(-2.3px,-1.9px)} }
  .n2 { animation: f2 9.7s ease-in-out infinite; }
  @keyframes f3 { 0%,100%{transform:translate(0,0)} 50%{transform:translate(3.0px,3.0px)} }
  .n3 { animation: f3 6.8s ease-in-out infinite; }
  @keyframes f4 { 0%,100%{transform:translate(0,0)} 50%{transform:translate(-2.7px,2.7px)} }
  .n4 { animation: f4 8.5s ease-in-out infinite; }
  @keyframes f5 { 0%,100%{transform:translate(0,0)} 50%{transform:translate(0.9px,3.9px)} }
  .n5 { animation: f5 8.3s ease-in-out infinite; }
  @keyframes f6 { 0%,100%{transform:translate(0,0)} 50%{transform:translate(-3.9px,2.5px)} }
  .n6 { animation: f6 6.5s ease-in-out infinite; }
  @keyframes pulse { 0%,100%{opacity:0.75} 50%{opacity:1} }
  @keyframes shimmer1 { 0%,100%{opacity:0.1} 50%{opacity:0.4} }
  .e1 { animation: shimmer1 5.0s ease-in-out infinite; }
  @keyframes shimmer2 { 0%,100%{opacity:0.1} 50%{opacity:0.4} }
  .e2 { animation: shimmer2 5.8s ease-in-out infinite; }
  @keyframes shimmer3 { 0%,100%{opacity:0.1} 50%{opacity:0.4} }
  .e3 { animation: shimmer3 3.4s ease-in-out infinite; }
</style>
<rect width="854" height="300" fill="#0d1117" rx="6"/>
<!-- edges -->
<g stroke="#378ADD" stroke-linecap="round">
  <line x1="541.9" y1="21.8" x2="516.9" y2="61.2" stroke-width="0.7" opacity="0.208" class="e1"/>
  <line x1="541.9" y1="21.8" x2="605.1" y2="79.4" stroke-width="0.7" opacity="0.089"/>
  <line x1="99.5" y1="215.0" x2="94.7" y2="243.8" stroke-width="0.7" opacity="0.261"/>
  <line x1="99.5" y1="215.0" x2="109.4" y2="253.9" stroke-width="0.7" opacity="0.228"/>
  <line x1="99.5" y1="215.0" x2="148.1" y2="272.4" stroke-width="0.7" opacity="0.121" class="e2"/>
  <line x1="99.5" y1="215.0" x2="72.0" y2="220.4" stroke-width="0.7" opacity="0.265"/>
  <line x1="99.5" y1="215.0" x2="189.5" y2="160.6" stroke-width="0.7" opacity="0.03"/>
  <line x1="99.5" y1="215.0" x2="166.2" y2="139.9" stroke-width="0.7" opacity="0.044"/>
  <line x1="39.6" y1="74.0" x2="52.8" y2="76.5" stroke-width="0.7" opacity="0.309" class="e3"/>
  <line x1="39.6" y1="74.0" x2="89.9" y2="27.7" stroke-width="0.7" opacity="0.142"/>
  <line x1="39.6" y1="74.0" x2="40.9" y2="104.2" stroke-width="0.7" opacity="0.258"/>
  <line x1="39.6" y1="74.0" x2="142.6" y2="95.1" stroke-width="0.7" opacity="0.03"/>
  <line x1="39.6" y1="74.0" x2="65.2" y2="99.7" stroke-width="0.7" opacity="0.24" class="e1"/>
  <line x1="39.6" y1="74.0" x2="71.5" y2="33.3" stroke-width="0.7" opacity="0.193"/>
  <line x1="605.0" y1="204.4" x2="533.0" y2="254.1" stroke-width="0.7" opacity="0.084"/>
  <line x1="605.0" y1="204.4" x2="709.5" y2="224.5" stroke-width="0.7" opacity="0.026"/>
  <line x1="605.0" y1="204.4" x2="575.7" y2="176.0" stroke-width="0.7" opacity="0.226" class="e2"/>
  <line x1="605.0" y1="204.4" x2="553.4" y2="189.5" stroke-width="0.7" opacity="0.187"/>
  <line x1="605.0" y1="204.4" x2="589.0" y2="212.2" stroke-width="0.7" opacity="0.296"/>
  <line x1="605.0" y1="204.4" x2="556.7" y2="167.6" stroke-width="0.7" opacity="0.165"/>
  <line x1="682.0" y1="16.8" x2="729.0" y2="117.6" stroke-width="0.7" opacity="0.011" class="e3"/>
  <line x1="682.0" y1="16.8" x2="725.0" y2="82.1" stroke-width="0.7" opacity="0.112"/>
  <line x1="682.0" y1="16.8" x2="717.6" y2="57.5" stroke-width="0.7" opacity="0.185"/>
  <line x1="682.0" y1="16.8" x2="748.6" y2="81.5" stroke-width="0.7" opacity="0.067"/>
  <line x1="682.0" y1="16.8" x2="605.1" y2="79.4" stroke-width="0.7" opacity="0.048" class="e1"/>
  <line x1="244.0" y1="73.1" x2="345.6" y2="32.9" stroke-width="0.7" opacity="0.017"/>
  <line x1="244.0" y1="73.1" x2="233.3" y2="81.6" stroke-width="0.7" opacity="0.308"/>
  <line x1="244.0" y1="73.1" x2="256.8" y2="57.7" stroke-width="0.7" opacity="0.289"/>
  <line x1="244.0" y1="73.1" x2="232.0" y2="150.2" stroke-width="0.7" opacity="0.113" class="e2"/>
  <line x1="244.0" y1="73.1" x2="213.5" y2="168.2" stroke-width="0.7" opacity="0.046"/>
  <line x1="244.0" y1="73.1" x2="189.5" y2="160.6" stroke-width="0.7" opacity="0.036"/>
  <line x1="244.0" y1="73.1" x2="219.3" y2="32.3" stroke-width="0.7" opacity="0.205"/>
  <line x1="244.0" y1="73.1" x2="196.5" y2="34.2" stroke-width="0.7" opacity="0.163" class="e3"/>
  <line x1="244.0" y1="73.1" x2="191.5" y2="50.7" stroke-width="0.7" opacity="0.176"/>
  <line x1="244.0" y1="73.1" x2="215.2" y2="142.7" stroke-width="0.7" opacity="0.121"/>
  <line x1="244.0" y1="73.1" x2="166.2" y2="139.9" stroke-width="0.7" opacity="0.038"/>
  <line x1="244.0" y1="73.1" x2="142.6" y2="95.1" stroke-width="0.7" opacity="0.034" class="e1"/>
  <line x1="94.7" y1="243.8" x2="109.4" y2="253.9" stroke-width="0.7" opacity="0.296"/>
  <line x1="94.7" y1="243.8" x2="148.1" y2="272.4" stroke-width="0.7" opacity="0.166"/>
  <line x1="94.7" y1="243.8" x2="72.0" y2="220.4" stroke-width="0.7" opacity="0.251"/>
  <line x1="456.9" y1="277.7" x2="533.0" y2="254.1" stroke-width="0.7" opacity="0.107" class="e2"/>
  <line x1="456.9" y1="277.7" x2="451.0" y2="277.2" stroke-width="0.7" opacity="0.332"/>
  <line x1="456.9" y1="277.7" x2="411.6" y2="248.5" stroke-width="0.7" opacity="0.186"/>
  <line x1="456.9" y1="277.7" x2="391.8" y2="265.8" stroke-width="0.7" opacity="0.149"/>
  <line x1="533.0" y1="254.1" x2="575.7" y2="176.0" stroke-width="0.7" opacity="0.079" class="e3"/>
  <line x1="533.0" y1="254.1" x2="451.0" y2="277.2" stroke-width="0.7" opacity="0.091"/>
  <line x1="533.0" y1="254.1" x2="553.4" y2="189.5" stroke-width="0.7" opacity="0.144"/>
  <line x1="533.0" y1="254.1" x2="589.0" y2="212.2" stroke-width="0.7" opacity="0.137"/>
  <line x1="533.0" y1="254.1" x2="556.7" y2="167.6" stroke-width="0.7" opacity="0.077" class="e1"/>
  <line x1="52.8" y1="76.5" x2="89.9" y2="27.7" stroke-width="0.7" opacity="0.163"/>
  <line x1="52.8" y1="76.5" x2="40.9" y2="104.2" stroke-width="0.7" opacity="0.258"/>
  <line x1="52.8" y1="76.5" x2="142.6" y2="95.1" stroke-width="0.7" opacity="0.071"/>
  <line x1="52.8" y1="76.5" x2="65.2" y2="99.7" stroke-width="0.7" opacity="0.27" class="e2"/>
  <line x1="52.8" y1="76.5" x2="71.5" y2="33.3" stroke-width="0.7" opacity="0.207"/>
  <line x1="729.0" y1="117.6" x2="709.5" y2="224.5" stroke-width="0.7" opacity="0.019"/>
  <line x1="729.0" y1="117.6" x2="795.2" y2="59.6" stroke-width="0.7" opacity="0.082"/>
  <line x1="729.0" y1="117.6" x2="725.0" y2="82.1" stroke-width="0.7" opacity="0.241" class="e3"/>
  <line x1="729.0" y1="117.6" x2="724.8" y2="163.6" stroke-width="0.7" opacity="0.21"/>
  <line x1="729.0" y1="117.6" x2="826.9" y2="86.6" stroke-width="0.7" opacity="0.037"/>
  <line x1="729.0" y1="117.6" x2="717.6" y2="57.5" stroke-width="0.7" opacity="0.164"/>
  <line x1="729.0" y1="117.6" x2="748.6" y2="81.5" stroke-width="0.7" opacity="0.225" class="e1"/>
  <line x1="307.7" y1="195.9" x2="237.4" y2="264.9" stroke-width="0.7" opacity="0.05"/>
  <line x1="307.7" y1="195.9" x2="274.3" y2="192.0" stroke-width="0.7" opacity="0.247"/>
  <line x1="307.7" y1="195.9" x2="368.0" y2="172.6" stroke-width="0.7" opacity="0.153"/>
  <line x1="307.7" y1="195.9" x2="232.0" y2="150.2" stroke-width="0.7" opacity="0.081" class="e2"/>
  <line x1="307.7" y1="195.9" x2="260.9" y2="187.5" stroke-width="0.7" opacity="0.205"/>
  <line x1="307.7" y1="195.9" x2="213.5" y2="168.2" stroke-width="0.7" opacity="0.051"/>
  <line x1="307.7" y1="195.9" x2="343.8" y2="196.4" stroke-width="0.7" opacity="0.24"/>
  <line x1="307.7" y1="195.9" x2="215.2" y2="142.7" stroke-width="0.7" opacity="0.025" class="e3"/>
  <line x1="307.7" y1="195.9" x2="370.2" y2="129.4" stroke-width="0.7" opacity="0.072"/>
  <line x1="307.7" y1="195.9" x2="391.8" y2="265.8" stroke-width="0.7" opacity="0.017"/>
  <line x1="516.9" y1="61.2" x2="417.6" y2="45.2" stroke-width="0.7" opacity="0.044"/>
  <line x1="516.9" y1="61.2" x2="556.7" y2="167.6" stroke-width="0.7" opacity="0.004" class="e1"/>
  <line x1="516.9" y1="61.2" x2="605.1" y2="79.4" stroke-width="0.7" opacity="0.076"/>
  <line x1="237.4" y1="264.9" x2="274.3" y2="192.0" stroke-width="0.7" opacity="0.101"/>
  <line x1="237.4" y1="264.9" x2="232.0" y2="150.2" stroke-width="0.7" opacity="0.001"/>
  <line x1="237.4" y1="264.9" x2="260.9" y2="187.5" stroke-width="0.7" opacity="0.104" class="e2"/>
  <line x1="237.4" y1="264.9" x2="148.1" y2="272.4" stroke-width="0.7" opacity="0.077"/>
  <line x1="237.4" y1="264.9" x2="213.5" y2="168.2" stroke-width="0.7" opacity="0.047"/>
  <line x1="237.4" y1="264.9" x2="189.5" y2="160.6" stroke-width="0.7" opacity="0.001"/>
  <line x1="709.5" y1="224.5" x2="724.8" y2="163.6" stroke-width="0.7" opacity="0.159" class="e3"/>
  <line x1="709.5" y1="224.5" x2="813.5" y2="265.1" stroke-width="0.7" opacity="0.01"/>
  <line x1="345.6" y1="32.9" x2="256.8" y2="57.7" stroke-width="0.7" opacity="0.07"/>
  <line x1="345.6" y1="32.9" x2="417.6" y2="45.2" stroke-width="0.7" opacity="0.128"/>
  <line x1="345.6" y1="32.9" x2="370.2" y2="129.4" stroke-width="0.7" opacity="0.047" class="e1"/>
  <line x1="274.3" y1="192.0" x2="368.0" y2="172.6" stroke-width="0.7" opacity="0.059"/>
  <line x1="274.3" y1="192.0" x2="232.0" y2="150.2" stroke-width="0.7" opacity="0.169"/>
  <line x1="274.3" y1="192.0" x2="260.9" y2="187.5" stroke-width="0.7" opacity="0.307"/>
  <line x1="274.3" y1="192.0" x2="213.5" y2="168.2" stroke-width="0.7" opacity="0.151" class="e2"/>
  <line x1="274.3" y1="192.0" x2="189.5" y2="160.6" stroke-width="0.7" opacity="0.075"/>
  <line x1="274.3" y1="192.0" x2="343.8" y2="196.4" stroke-width="0.7" opacity="0.138"/>
  <line x1="274.3" y1="192.0" x2="215.2" y2="142.7" stroke-width="0.7" opacity="0.116"/>
  <line x1="274.3" y1="192.0" x2="370.2" y2="129.4" stroke-width="0.7" opacity="0.001" class="e3"/>
  <line x1="233.3" y1="81.6" x2="256.8" y2="57.7" stroke-width="0.7" opacity="0.248"/>
  <line x1="233.3" y1="81.6" x2="232.0" y2="150.2" stroke-width="0.7" opacity="0.141"/>
  <line x1="233.3" y1="81.6" x2="260.9" y2="187.5" stroke-width="0.7" opacity="0.017"/>
  <line x1="233.3" y1="81.6" x2="213.5" y2="168.2" stroke-width="0.7" opacity="0.08" class="e1"/>
  <line x1="233.3" y1="81.6" x2="189.5" y2="160.6" stroke-width="0.7" opacity="0.075"/>
  <line x1="233.3" y1="81.6" x2="219.3" y2="32.3" stroke-width="0.7" opacity="0.194"/>
  <line x1="233.3" y1="81.6" x2="196.5" y2="34.2" stroke-width="0.7" opacity="0.167"/>
  <line x1="233.3" y1="81.6" x2="191.5" y2="50.7" stroke-width="0.7" opacity="0.192" class="e2"/>
  <line x1="233.3" y1="81.6" x2="215.2" y2="142.7" stroke-width="0.7" opacity="0.156"/>
  <line x1="233.3" y1="81.6" x2="166.2" y2="139.9" stroke-width="0.7" opacity="0.08"/>
  <line x1="233.3" y1="81.6" x2="142.6" y2="95.1" stroke-width="0.7" opacity="0.071"/>
  <line x1="368.0" y1="172.6" x2="260.9" y2="187.5" stroke-width="0.7" opacity="0.021" class="e3"/>
  <line x1="368.0" y1="172.6" x2="343.8" y2="196.4" stroke-width="0.7" opacity="0.247"/>
  <line x1="368.0" y1="172.6" x2="370.2" y2="129.4" stroke-width="0.7" opacity="0.218"/>
  <line x1="368.0" y1="172.6" x2="411.6" y2="248.5" stroke-width="0.7" opacity="0.084"/>
  <line x1="368.0" y1="172.6" x2="391.8" y2="265.8" stroke-width="0.7" opacity="0.057" class="e1"/>
  <line x1="89.9" y1="27.7" x2="196.5" y2="34.2" stroke-width="0.7" opacity="0.025"/>
  <line x1="89.9" y1="27.7" x2="40.9" y2="104.2" stroke-width="0.7" opacity="0.073"/>
  <line x1="89.9" y1="27.7" x2="191.5" y2="50.7" stroke-width="0.7" opacity="0.033"/>
  <line x1="89.9" y1="27.7" x2="142.6" y2="95.1" stroke-width="0.7" opacity="0.09" class="e2"/>
  <line x1="89.9" y1="27.7" x2="65.2" y2="99.7" stroke-width="0.7" opacity="0.118"/>
  <line x1="89.9" y1="27.7" x2="71.5" y2="33.3" stroke-width="0.7" opacity="0.291"/>
  <line x1="575.7" y1="176.0" x2="553.4" y2="189.5" stroke-width="0.7" opacity="0.271"/>
  <line x1="575.7" y1="176.0" x2="589.0" y2="212.2" stroke-width="0.7" opacity="0.233" class="e3"/>
  <line x1="575.7" y1="176.0" x2="556.7" y2="167.6" stroke-width="0.7" opacity="0.287"/>
  <line x1="575.7" y1="176.0" x2="605.1" y2="79.4" stroke-width="0.7" opacity="0.043"/>
  <line x1="451.0" y1="277.2" x2="411.6" y2="248.5" stroke-width="0.7" opacity="0.202"/>
  <line x1="451.0" y1="277.2" x2="391.8" y2="265.8" stroke-width="0.7" opacity="0.166" class="e1"/>
  <line x1="109.4" y1="253.9" x2="148.1" y2="272.4" stroke-width="0.7" opacity="0.219"/>
  <line x1="109.4" y1="253.9" x2="72.0" y2="220.4" stroke-width="0.7" opacity="0.197"/>
  <line x1="256.8" y1="57.7" x2="232.0" y2="150.2" stroke-width="0.7" opacity="0.059"/>
  <line x1="256.8" y1="57.7" x2="219.3" y2="32.3" stroke-width="0.7" opacity="0.212" class="e2"/>
  <line x1="256.8" y1="57.7" x2="196.5" y2="34.2" stroke-width="0.7" opacity="0.153"/>
  <line x1="256.8" y1="57.7" x2="191.5" y2="50.7" stroke-width="0.7" opacity="0.15"/>
  <line x1="256.8" y1="57.7" x2="215.2" y2="142.7" stroke-width="0.7" opacity="0.062"/>
  <line x1="232.0" y1="150.2" x2="260.9" y2="187.5" stroke-width="0.7" opacity="0.206" class="e3"/>
  <line x1="232.0" y1="150.2" x2="213.5" y2="168.2" stroke-width="0.7" opacity="0.271"/>
  <line x1="232.0" y1="150.2" x2="189.5" y2="160.6" stroke-width="0.7" opacity="0.217"/>
  <line x1="232.0" y1="150.2" x2="191.5" y2="50.7" stroke-width="0.7" opacity="0.023"/>
  <line x1="232.0" y1="150.2" x2="215.2" y2="142.7" stroke-width="0.7" opacity="0.294" class="e1"/>
  <line x1="232.0" y1="150.2" x2="166.2" y2="139.9" stroke-width="0.7" opacity="0.147"/>
  <line x1="232.0" y1="150.2" x2="142.6" y2="95.1" stroke-width="0.7" opacity="0.03"/>
  <line x1="260.9" y1="187.5" x2="213.5" y2="168.2" stroke-width="0.7" opacity="0.194"/>
  <line x1="260.9" y1="187.5" x2="189.5" y2="160.6" stroke-width="0.7" opacity="0.118" class="e2"/>
  <line x1="260.9" y1="187.5" x2="343.8" y2="196.4" stroke-width="0.7" opacity="0.096"/>
  <line x1="260.9" y1="187.5" x2="215.2" y2="142.7" stroke-width="0.7" opacity="0.155"/>
  <line x1="260.9" y1="187.5" x2="166.2" y2="139.9" stroke-width="0.7" opacity="0.027"/>
  <line x1="148.1" y1="272.4" x2="72.0" y2="220.4" stroke-width="0.7" opacity="0.069" class="e3"/>
  <line x1="417.6" y1="45.2" x2="370.2" y2="129.4" stroke-width="0.7" opacity="0.056"/>
  <line x1="213.5" y1="168.2" x2="189.5" y2="160.6" stroke-width="0.7" opacity="0.274"/>
  <line x1="213.5" y1="168.2" x2="215.2" y2="142.7" stroke-width="0.7" opacity="0.272"/>
  <line x1="213.5" y1="168.2" x2="166.2" y2="139.9" stroke-width="0.7" opacity="0.182" class="e1"/>
  <line x1="213.5" y1="168.2" x2="142.6" y2="95.1" stroke-width="0.7" opacity="0.04"/>
  <line x1="795.2" y1="59.6" x2="725.0" y2="82.1" stroke-width="0.7" opacity="0.126"/>
  <line x1="795.2" y1="59.6" x2="826.9" y2="86.6" stroke-width="0.7" opacity="0.223"/>
  <line x1="795.2" y1="59.6" x2="717.6" y2="57.5" stroke-width="0.7" opacity="0.114" class="e2"/>
  <line x1="795.2" y1="59.6" x2="748.6" y2="81.5" stroke-width="0.7" opacity="0.193"/>
  <line x1="189.5" y1="160.6" x2="191.5" y2="50.7" stroke-width="0.7" opacity="0.016"/>
  <line x1="189.5" y1="160.6" x2="215.2" y2="142.7" stroke-width="0.7" opacity="0.255"/>
  <line x1="189.5" y1="160.6" x2="166.2" y2="139.9" stroke-width="0.7" opacity="0.255" class="e3"/>
  <line x1="189.5" y1="160.6" x2="142.6" y2="95.1" stroke-width="0.7" opacity="0.105"/>
  <line x1="343.8" y1="196.4" x2="370.2" y2="129.4" stroke-width="0.7" opacity="0.131"/>
  <line x1="343.8" y1="196.4" x2="411.6" y2="248.5" stroke-width="0.7" opacity="0.09"/>
  <line x1="343.8" y1="196.4" x2="391.8" y2="265.8" stroke-width="0.7" opacity="0.093" class="e1"/>
  <line x1="219.3" y1="32.3" x2="196.5" y2="34.2" stroke-width="0.7" opacity="0.28"/>
  <line x1="219.3" y1="32.3" x2="191.5" y2="50.7" stroke-width="0.7" opacity="0.249"/>
  <line x1="219.3" y1="32.3" x2="215.2" y2="142.7" stroke-width="0.7" opacity="0.014"/>
  <line x1="219.3" y1="32.3" x2="142.6" y2="95.1" stroke-width="0.7" opacity="0.048" class="e2"/>
  <line x1="196.5" y1="34.2" x2="191.5" y2="50.7" stroke-width="0.7" opacity="0.297"/>
  <line x1="196.5" y1="34.2" x2="215.2" y2="142.7" stroke-width="0.7" opacity="0.015"/>
  <line x1="196.5" y1="34.2" x2="166.2" y2="139.9" stroke-width="0.7" opacity="0.015"/>
  <line x1="196.5" y1="34.2" x2="142.6" y2="95.1" stroke-width="0.7" opacity="0.102" class="e3"/>
  <line x1="40.9" y1="104.2" x2="142.6" y2="95.1" stroke-width="0.7" opacity="0.039"/>
  <line x1="40.9" y1="104.2" x2="65.2" y2="99.7" stroke-width="0.7" opacity="0.275"/>
  <line x1="40.9" y1="104.2" x2="71.5" y2="33.3" stroke-width="0.7" opacity="0.115"/>
  <line x1="191.5" y1="50.7" x2="215.2" y2="142.7" stroke-width="0.7" opacity="0.061" class="e1"/>
  <line x1="191.5" y1="50.7" x2="166.2" y2="139.9" stroke-width="0.7" opacity="0.068"/>
  <line x1="191.5" y1="50.7" x2="142.6" y2="95.1" stroke-width="0.7" opacity="0.149"/>
  <line x1="215.2" y1="142.7" x2="166.2" y2="139.9" stroke-width="0.7" opacity="0.201"/>
  <line x1="215.2" y1="142.7" x2="142.6" y2="95.1" stroke-width="0.7" opacity="0.086" class="e2"/>
  <line x1="553.4" y1="189.5" x2="589.0" y2="212.2" stroke-width="0.7" opacity="0.222"/>
  <line x1="553.4" y1="189.5" x2="556.7" y2="167.6" stroke-width="0.7" opacity="0.283"/>
  <line x1="725.0" y1="82.1" x2="724.8" y2="163.6" stroke-width="0.7" opacity="0.102"/>
  <line x1="725.0" y1="82.1" x2="826.9" y2="86.6" stroke-width="0.7" opacity="0.04" class="e3"/>
  <line x1="725.0" y1="82.1" x2="717.6" y2="57.5" stroke-width="0.7" opacity="0.272"/>
  <line x1="725.0" y1="82.1" x2="748.6" y2="81.5" stroke-width="0.7" opacity="0.278"/>
  <line x1="166.2" y1="139.9" x2="142.6" y2="95.1" stroke-width="0.7" opacity="0.196"/>
  <line x1="166.2" y1="139.9" x2="65.2" y2="99.7" stroke-width="0.7" opacity="0.019" class="e1"/>
  <line x1="724.8" y1="163.6" x2="717.6" y2="57.5" stroke-width="0.7" opacity="0.026"/>
  <line x1="724.8" y1="163.6" x2="748.6" y2="81.5" stroke-width="0.7" opacity="0.09"/>
  <line x1="411.6" y1="248.5" x2="391.8" y2="265.8" stroke-width="0.7" opacity="0.27"/>
  <line x1="826.9" y1="86.6" x2="717.6" y2="57.5" stroke-width="0.7" opacity="0.006" class="e2"/>
  <line x1="826.9" y1="86.6" x2="748.6" y2="81.5" stroke-width="0.7" opacity="0.111"/>
  <line x1="589.0" y1="212.2" x2="556.7" y2="167.6" stroke-width="0.7" opacity="0.182"/>
  <line x1="142.6" y1="95.1" x2="65.2" y2="99.7" stroke-width="0.7" opacity="0.114"/>
  <line x1="142.6" y1="95.1" x2="71.5" y2="33.3" stroke-width="0.7" opacity="0.063" class="e3"/>
  <line x1="65.2" y1="99.7" x2="71.5" y2="33.3" stroke-width="0.7" opacity="0.147"/>
  <line x1="717.6" y1="57.5" x2="748.6" y2="81.5" stroke-width="0.7" opacity="0.231"/>
  <line x1="717.6" y1="57.5" x2="605.1" y2="79.4" stroke-width="0.7" opacity="0.001"/>
  <line x1="556.7" y1="167.6" x2="605.1" y2="79.4" stroke-width="0.7" opacity="0.044" class="e1"/>
</g>
<!-- nodes -->
<circle cx="541.9" cy="21.8" r="2.0" fill="#378ADD" opacity="0.85" class="n2" style="animation-delay:1.1s"/>
<circle cx="99.5" cy="215.0" r="2.4" fill="#378ADD" opacity="0.85" class="n5" style="animation-delay:3.4s"/>
<circle cx="39.6" cy="74.0" r="2.4" fill="#378ADD" opacity="0.85" class="n1" style="animation-delay:4.5s"/>
<circle cx="605.0" cy="204.4" r="2.2" fill="#378ADD" opacity="0.85" class="n4" style="animation-delay:4.7s"/>
<circle cx="682.0" cy="16.8" r="2.9" fill="#378ADD" opacity="0.85" class="n6" style="animation-delay:3.4s"/>
<circle cx="244.0" cy="73.1" r="2.8" fill="#378ADD" opacity="0.85" class="n1" style="animation-delay:0.7s"/>
<circle cx="94.7" cy="243.8" r="2.5" fill="#378ADD" opacity="0.85" class="n1" style="animation-delay:5.8s"/>
<circle cx="456.9" cy="277.7" r="2.1" fill="#378ADD" opacity="0.85" class="n5" style="animation-delay:2.3s"/>
<circle cx="533.0" cy="254.1" r="2.1" fill="#378ADD" opacity="0.85" class="n2" style="animation-delay:5.6s"/>
<circle cx="52.8" cy="76.5" r="2.0" fill="#378ADD" opacity="0.85" class="n1" style="animation-delay:6.8s"/>
<circle cx="729.0" cy="117.6" r="2.3" fill="#378ADD" opacity="0.85" class="n3" style="animation-delay:1.3s"/>
<circle cx="307.7" cy="195.9" r="2.7" fill="#378ADD" opacity="0.85" class="n6" style="animation-delay:5.2s"/>
<circle cx="516.9" cy="61.2" r="2.7" fill="#378ADD" opacity="0.85" class="n2" style="animation-delay:3.7s"/>
<circle cx="237.4" cy="264.9" r="2.7" fill="#378ADD" opacity="0.85" class="n2" style="animation-delay:5.5s"/>
<circle cx="709.5" cy="224.5" r="1.9" fill="#378ADD" opacity="0.85" class="n1" style="animation-delay:6.4s"/>
<circle cx="345.6" cy="32.9" r="3.1" fill="#378ADD" opacity="0.85" class="n5" style="animation-delay:7.0s"/>
<circle cx="274.3" cy="192.0" r="2.2" fill="#378ADD" opacity="0.85" class="n6" style="animation-delay:3.7s"/>
<circle cx="233.3" cy="81.6" r="2.5" fill="#378ADD" opacity="0.85" class="n3" style="animation-delay:6.0s"/>
<circle cx="368.0" cy="172.6" r="2.1" fill="#378ADD" opacity="0.85" class="n2" style="animation-delay:4.1s"/>
<circle cx="89.9" cy="27.7" r="1.7" fill="#378ADD" opacity="0.85" class="n6" style="animation-delay:1.3s"/>
<circle cx="575.7" cy="176.0" r="2.2" fill="#378ADD" opacity="0.85" class="n5" style="animation-delay:8.0s"/>
<circle cx="451.0" cy="277.2" r="3.0" fill="#378ADD" opacity="0.85" class="n1" style="animation-delay:5.4s"/>
<circle cx="109.4" cy="253.9" r="2.8" fill="#378ADD" opacity="0.85" class="n6" style="animation-delay:2.7s"/>
<circle cx="256.8" cy="57.7" r="1.5" fill="#378ADD" opacity="0.85" class="n6" style="animation-delay:7.0s"/>
<circle cx="232.0" cy="150.2" r="1.8" fill="#378ADD" opacity="0.85" class="n1" style="animation-delay:7.0s"/>
<circle cx="260.9" cy="187.5" r="2.5" fill="#378ADD" opacity="0.85" class="n2" style="animation-delay:3.0s"/>
<circle cx="148.1" cy="272.4" r="3.1" fill="#378ADD" opacity="0.85" class="n1" style="animation-delay:4.8s"/>
<circle cx="417.6" cy="45.2" r="2.1" fill="#378ADD" opacity="0.85" class="n3" style="animation-delay:1.9s"/>
<circle cx="213.5" cy="168.2" r="1.6" fill="#378ADD" opacity="0.85" class="n6" style="animation-delay:3.9s"/>
<circle cx="72.0" cy="220.4" r="2.8" fill="#378ADD" opacity="0.85" class="n2" style="animation-delay:5.3s"/>
<circle cx="795.2" cy="59.6" r="2.4" fill="#378ADD" opacity="0.85" class="n5" style="animation-delay:3.4s"/>
<circle cx="189.5" cy="160.6" r="2.7" fill="#378ADD" opacity="0.85" class="n2" style="animation-delay:5.7s"/>
<circle cx="343.8" cy="196.4" r="2.1" fill="#378ADD" opacity="0.85" class="n5" style="animation-delay:3.6s"/>
<circle cx="219.3" cy="32.3" r="1.5" fill="#378ADD" opacity="0.85" class="n5" style="animation-delay:1.8s"/>
<circle cx="196.5" cy="34.2" r="2.6" fill="#378ADD" opacity="0.85" class="n2" style="animation-delay:0.5s"/>
<circle cx="40.9" cy="104.2" r="2.4" fill="#378ADD" opacity="0.85" class="n3" style="animation-delay:5.4s"/>
<circle cx="191.5" cy="50.7" r="3.1" fill="#378ADD" opacity="0.85" class="n5" style="animation-delay:4.6s"/>
<circle cx="215.2" cy="142.7" r="2.2" fill="#378ADD" opacity="0.85" class="n1" style="animation-delay:0.8s"/>
<circle cx="370.2" cy="129.4" r="2.3" fill="#378ADD" opacity="0.85" class="n6" style="animation-delay:0.4s"/>
<circle cx="553.4" cy="189.5" r="1.6" fill="#378ADD" opacity="0.85" class="n6" style="animation-delay:2.7s"/>
<circle cx="725.0" cy="82.1" r="1.8" fill="#378ADD" opacity="0.85" class="n4" style="animation-delay:1.1s"/>
<circle cx="166.2" cy="139.9" r="3.0" fill="#378ADD" opacity="0.85" class="n1" style="animation-delay:3.5s"/>
<circle cx="724.8" cy="163.6" r="1.6" fill="#378ADD" opacity="0.85" class="n5" style="animation-delay:6.7s"/>
<circle cx="813.5" cy="265.1" r="2.9" fill="#378ADD" opacity="0.85" class="n2" style="animation-delay:3.3s"/>
<circle cx="411.6" cy="248.5" r="3.0" fill="#378ADD" opacity="0.85" class="n2" style="animation-delay:3.0s"/>
<circle cx="826.9" cy="86.6" r="2.8" fill="#378ADD" opacity="0.85" class="n4" style="animation-delay:2.3s"/>
<circle cx="589.0" cy="212.2" r="2.8" fill="#378ADD" opacity="0.85" class="n6" style="animation-delay:5.7s"/>
<circle cx="142.6" cy="95.1" r="3.1" fill="#378ADD" opacity="0.85" class="n5" style="animation-delay:5.9s"/>
<circle cx="65.2" cy="99.7" r="1.6" fill="#378ADD" opacity="0.85" class="n4" style="animation-delay:4.0s"/>
<circle cx="717.6" cy="57.5" r="3.1" fill="#378ADD" opacity="0.85" class="n1" style="animation-delay:6.8s"/>
<circle cx="71.5" cy="33.3" r="3.0" fill="#378ADD" opacity="0.85" class="n4" style="animation-delay:1.0s"/>
<circle cx="748.6" cy="81.5" r="2.5" fill="#378ADD" opacity="0.85" class="n5" style="animation-delay:0.7s"/>
<circle cx="556.7" cy="167.6" r="2.0" fill="#378ADD" opacity="0.85" class="n3" style="animation-delay:1.6s"/>
<circle cx="605.1" cy="79.4" r="2.2" fill="#378ADD" opacity="0.85" class="n6" style="animation-delay:5.2s"/>
<circle cx="391.8" cy="265.8" r="3.1" fill="#378ADD" opacity="0.85" class="n1" style="animation-delay:3.7s"/>
<!-- text -->
<text x="427.0" y="128.0" text-anchor="middle" font-family="system-ui, -apple-system, Segoe UI, sans-serif" font-size="36" font-weight="600" fill="rgba(255,255,255,0.94)">Muhammad Rakeh Saleem, PhD</text>
<text x="427.0" y="164.0" text-anchor="middle" font-family="system-ui, -apple-system, Segoe UI, sans-serif" font-size="15" font-weight="400" fill="rgba(55,138,221,0.9)">Senior Data Scientist  ·  AI Architect  ·  Computer Vision</text>
<text x="427.0" y="188.0" text-anchor="middle" font-family="system-ui, -apple-system, Segoe UI, sans-serif" font-size="12.5" font-weight="400" fill="rgba(140,180,220,0.65)">GA Telesis  ·  Predictive Logistics  ·  SHM</text>
</svg>