<svg xmlns="http://www.w3.org/2000/svg" viewBox="0 0 854 300" width="854" height="300">
<style>
  @keyframes f1 { 0%,100%{transform:translate(0,0)} 25%{transform:translate(12px,-14px)} 50%{transform:translate(-10px,16px)} 75%{transform:translate(8px,-12px)} }
  .n1 { animation: f1 4.3s ease-in-out infinite; }
  @keyframes f2 { 0%,100%{transform:translate(0,0)} 25%{transform:translate(-15px,10px)} 50%{transform:translate(14px,-8px)} 75%{transform:translate(-12px,14px)} }
  .n2 { animation: f2 4.0s ease-in-out infinite; }
  @keyframes f3 { 0%,100%{transform:translate(0,0)} 25%{transform:translate(10px,16px)} 50%{transform:translate(-16px,-10px)} 75%{transform:translate(14px,8px)} }
  .n3 { animation: f3 2.8s ease-in-out infinite; }
  @keyframes f4 { 0%,100%{transform:translate(0,0)} 25%{transform:translate(-14px,-12px)} 50%{transform:translate(10px,15px)} 75%{transform:translate(-8px,-16px)} }
  .n4 { animation: f4 3.1s ease-in-out infinite; }
  @keyframes f5 { 0%,100%{transform:translate(0,0)} 25%{transform:translate(16px,8px)} 50%{transform:translate(-12px,14px)} 75%{transform:translate(10px,-10px)} }
  .n5 { animation: f5 2.9s ease-in-out infinite; }
  @keyframes f6 { 0%,100%{transform:translate(0,0)} 25%{transform:translate(-8px,18px)} 50%{transform:translate(15px,-14px)} 75%{transform:translate(-14px,10px)} }
  .n6 { animation: f6 3.2s ease-in-out infinite; }
  @keyframes f7 { 0%,100%{transform:translate(0,0)} 25%{transform:translate(14px,-10px)} 50%{transform:translate(-8px,16px)} 75%{transform:translate(12px,-14px)} }
  .n7 { animation: f7 3.9s ease-in-out infinite; }
  @keyframes f8 { 0%,100%{transform:translate(0,0)} 25%{transform:translate(-16px,14px)} 50%{transform:translate(12px,-12px)} 75%{transform:translate(-10px,18px)} }
  .n8 { animation: f8 4.2s ease-in-out infinite; }
  @keyframes shimmer1 { 0%,100%{opacity:0.08} 50%{opacity:0.55} }
  .e1 { animation: shimmer1 2.3s ease-in-out infinite; }
  @keyframes shimmer2 { 0%,100%{opacity:0.08} 50%{opacity:0.55} }
  .e2 { animation: shimmer2 1.9s ease-in-out infinite; }
  @keyframes shimmer3 { 0%,100%{opacity:0.08} 50%{opacity:0.55} }
  .e3 { animation: shimmer3 2.9s ease-in-out infinite; }
  @keyframes shimmer4 { 0%,100%{opacity:0.08} 50%{opacity:0.55} }
  .e4 { animation: shimmer4 1.6s ease-in-out infinite; }
  @keyframes glow { 0%,100%{opacity:0.7} 50%{opacity:1} }
  .node-glow { animation: glow 2s ease-in-out infinite; }
</style>
<rect width="854" height="300" fill="#0d1117" rx="6"/>
<g stroke="#378ADD" stroke-linecap="round">
  <line x1="541.9" y1="21.8" x2="595.6" y2="27.4" stroke-width="0.7" opacity="0.186" class="e1"/>
  <line x1="541.9" y1="21.8" x2="578.2" y2="34.3" stroke-width="0.7" opacity="0.233"/>
  <line x1="541.9" y1="21.8" x2="550.5" y2="133.3" stroke-width="0.7" opacity="0.01"/>
  <line x1="541.9" y1="21.8" x2="598.3" y2="30.9" stroke-width="0.7" opacity="0.176" class="e4"/>
  <line x1="99.5" y1="215.0" x2="20.4" y2="232.6" stroke-width="0.7" opacity="0.103"/>
  <line x1="99.5" y1="215.0" x2="192.4" y2="221.1" stroke-width="0.7" opacity="0.066"/>
  <line x1="99.5" y1="215.0" x2="102.7" y2="183.8" stroke-width="0.7" opacity="0.255" class="e3"/>
  <line x1="99.5" y1="215.0" x2="151.1" y2="157.5" stroke-width="0.7" opacity="0.115"/>
  <line x1="99.5" y1="215.0" x2="77.1" y2="233.2" stroke-width="0.7" opacity="0.262"/>
  <line x1="99.5" y1="215.0" x2="62.1" y2="172.7" stroke-width="0.7" opacity="0.178" class="e2"/>
  <line x1="99.5" y1="215.0" x2="183.3" y2="208.4" stroke-width="0.7" opacity="0.094"/>
  <line x1="99.5" y1="215.0" x2="124.1" y2="109.2" stroke-width="0.7" opacity="0.02"/>
  <line x1="99.5" y1="215.0" x2="145.0" y2="240.1" stroke-width="0.7" opacity="0.192" class="e1"/>
  <line x1="92.2" y1="77.8" x2="53.8" y2="44.6" stroke-width="0.7" opacity="0.196"/>
  <line x1="92.2" y1="77.8" x2="102.7" y2="183.8" stroke-width="0.7" opacity="0.026"/>
  <line x1="92.2" y1="77.8" x2="151.1" y2="157.5" stroke-width="0.7" opacity="0.049" class="e4"/>
  <line x1="92.2" y1="77.8" x2="67.8" y2="20.7" stroke-width="0.7" opacity="0.161"/>
  <line x1="92.2" y1="77.8" x2="73.4" y2="79.3" stroke-width="0.7" opacity="0.293"/>
  <line x1="92.2" y1="77.8" x2="16.8" y2="120.4" stroke-width="0.7" opacity="0.086" class="e3"/>
  <line x1="92.2" y1="77.8" x2="62.1" y2="172.7" stroke-width="0.7" opacity="0.047"/>
  <line x1="92.2" y1="77.8" x2="47.7" y2="37.1" stroke-width="0.7" opacity="0.167"/>
  <line x1="92.2" y1="77.8" x2="124.1" y2="109.2" stroke-width="0.7" opacity="0.214" class="e2"/>
  <line x1="592.9" y1="128.3" x2="595.6" y2="27.4" stroke-width="0.7" opacity="0.043"/>
  <line x1="592.9" y1="128.3" x2="578.2" y2="34.3" stroke-width="0.7" opacity="0.06"/>
  <line x1="592.9" y1="128.3" x2="643.3" y2="160.6" stroke-width="0.7" opacity="0.168" class="e1"/>
  <line x1="592.9" y1="128.3" x2="637.3" y2="201.3" stroke-width="0.7" opacity="0.09"/>
  <line x1="592.9" y1="128.3" x2="550.5" y2="133.3" stroke-width="0.7" opacity="0.22"/>
  <line x1="592.9" y1="128.3" x2="598.3" y2="30.9" stroke-width="0.7" opacity="0.053" class="e4"/>
  <line x1="592.9" y1="128.3" x2="680.4" y2="66.4" stroke-width="0.7" opacity="0.024"/>
  <line x1="592.9" y1="128.3" x2="615.0" y2="231.2" stroke-width="0.7" opacity="0.03"/>
  <line x1="592.9" y1="128.3" x2="589.0" y2="212.2" stroke-width="0.7" opacity="0.094" class="e3"/>
  <line x1="592.9" y1="128.3" x2="546.9" y2="138.5" stroke-width="0.7" opacity="0.207"/>
  <line x1="592.9" y1="128.3" x2="526.8" y2="167.0" stroke-width="0.7" opacity="0.117"/>
  <line x1="20.4" y1="232.6" x2="102.7" y2="183.8" stroke-width="0.7" opacity="0.059" class="e2"/>
  <line x1="20.4" y1="232.6" x2="77.1" y2="233.2" stroke-width="0.7" opacity="0.177"/>
  <line x1="20.4" y1="232.6" x2="16.8" y2="120.4" stroke-width="0.7" opacity="0.008"/>
  <line x1="20.4" y1="232.6" x2="62.1" y2="172.7" stroke-width="0.7" opacity="0.128" class="e1"/>
  <line x1="192.4" y1="221.1" x2="218.2" y2="166.6" stroke-width="0.7" opacity="0.166"/>
  <line x1="192.4" y1="221.1" x2="102.7" y2="183.8" stroke-width="0.7" opacity="0.054"/>
  <line x1="192.4" y1="221.1" x2="213.5" y2="168.2" stroke-width="0.7" opacity="0.177" class="e4"/>
  <line x1="192.4" y1="221.1" x2="151.1" y2="157.5" stroke-width="0.7" opacity="0.119"/>
  <line x1="192.4" y1="221.1" x2="259.5" y2="276.6" stroke-width="0.7" opacity="0.085"/>
  <line x1="192.4" y1="221.1" x2="183.3" y2="208.4" stroke-width="0.7" opacity="0.302" class="e3"/>
  <line x1="192.4" y1="221.1" x2="145.0" y2="240.1" stroke-width="0.7" opacity="0.195"/>
  <line x1="713.3" y1="178.0" x2="719.8" y2="249.0" stroke-width="0.7" opacity="0.133"/>
  <line x1="713.3" y1="178.0" x2="709.5" y2="224.5" stroke-width="0.7" opacity="0.208" class="e2"/>
  <line x1="713.3" y1="178.0" x2="736.7" y2="86.1" stroke-width="0.7" opacity="0.061"/>
  <line x1="713.3" y1="178.0" x2="643.3" y2="160.6" stroke-width="0.7" opacity="0.13"/>
  <line x1="713.3" y1="178.0" x2="820.9" y2="158.8" stroke-width="0.7" opacity="0.018" class="e1"/>
  <line x1="713.3" y1="178.0" x2="637.3" y2="201.3" stroke-width="0.7" opacity="0.108"/>
  <line x1="713.3" y1="178.0" x2="615.0" y2="231.2" stroke-width="0.7" opacity="0.01"/>
  <line x1="816.8" y1="117.2" x2="736.7" y2="86.1" stroke-width="0.7" opacity="0.088" class="e4"/>
  <line x1="816.8" y1="117.2" x2="820.9" y2="158.8" stroke-width="0.7" opacity="0.223"/>
  <line x1="595.6" y1="27.4" x2="578.2" y2="34.3" stroke-width="0.7" opacity="0.293"/>
  <line x1="595.6" y1="27.4" x2="598.3" y2="30.9" stroke-width="0.7" opacity="0.337" class="e3"/>
  <line x1="595.6" y1="27.4" x2="680.4" y2="66.4" stroke-width="0.7" opacity="0.066"/>
  <line x1="719.8" y1="249.0" x2="709.5" y2="224.5" stroke-width="0.7" opacity="0.269"/>
  <line x1="719.8" y1="249.0" x2="637.3" y2="201.3" stroke-width="0.7" opacity="0.06" class="e2"/>
  <line x1="719.8" y1="249.0" x2="611.0" y2="253.2" stroke-width="0.7" opacity="0.019"/>
  <line x1="719.8" y1="249.0" x2="615.0" y2="231.2" stroke-width="0.7" opacity="0.027"/>
  <line x1="315.6" y1="114.9" x2="345.6" y2="32.9" stroke-width="0.7" opacity="0.084" class="e1"/>
  <line x1="315.6" y1="114.9" x2="218.2" y2="166.6" stroke-width="0.7" opacity="0.015"/>
  <line x1="315.6" y1="114.9" x2="344.1" y2="74.2" stroke-width="0.7" opacity="0.199"/>
  <line x1="315.6" y1="114.9" x2="332.0" y2="175.9" stroke-width="0.7" opacity="0.158" class="e4"/>
  <line x1="315.6" y1="114.9" x2="295.3" y2="94.2" stroke-width="0.7" opacity="0.262"/>
  <line x1="315.6" y1="114.9" x2="384.7" y2="128.9" stroke-width="0.7" opacity="0.136"/>
  <line x1="315.6" y1="114.9" x2="415.2" y2="72.7" stroke-width="0.7" opacity="0.021" class="e3"/>
  <line x1="578.2" y1="34.3" x2="550.5" y2="133.3" stroke-width="0.7" opacity="0.037"/>
  <line x1="578.2" y1="34.3" x2="598.3" y2="30.9" stroke-width="0.7" opacity="0.288"/>
  <line x1="578.2" y1="34.3" x2="680.4" y2="66.4" stroke-width="0.7" opacity="0.024" class="e2"/>
  <line x1="578.2" y1="34.3" x2="546.9" y2="138.5" stroke-width="0.7" opacity="0.019"/>
  <line x1="327.7" y1="282.2" x2="426.4" y2="253.9" stroke-width="0.7" opacity="0.038"/>
  <line x1="327.7" y1="282.2" x2="332.0" y2="175.9" stroke-width="0.7" opacity="0.026" class="e1"/>
  <line x1="327.7" y1="282.2" x2="353.7" y2="248.2" stroke-width="0.7" opacity="0.22"/>
  <line x1="327.7" y1="282.2" x2="259.5" y2="276.6" stroke-width="0.7" opacity="0.142"/>
  <line x1="327.7" y1="282.2" x2="433.5" y2="244.9" stroke-width="0.7" opacity="0.009" class="e4"/>
  <line x1="709.5" y1="224.5" x2="643.3" y2="160.6" stroke-width="0.7" opacity="0.07"/>
  <line x1="709.5" y1="224.5" x2="637.3" y2="201.3" stroke-width="0.7" opacity="0.119"/>
  <line x1="709.5" y1="224.5" x2="611.0" y2="253.2" stroke-width="0.7" opacity="0.038" class="e3"/>
  <line x1="709.5" y1="224.5" x2="615.0" y2="231.2" stroke-width="0.7" opacity="0.062"/>
  <line x1="345.6" y1="32.9" x2="344.1" y2="74.2" stroke-width="0.7" opacity="0.224"/>
  <line x1="345.6" y1="32.9" x2="295.3" y2="94.2" stroke-width="0.7" opacity="0.109" class="e2"/>
  <line x1="345.6" y1="32.9" x2="417.6" y2="45.2" stroke-width="0.7" opacity="0.128"/>
  <line x1="345.6" y1="32.9" x2="384.7" y2="128.9" stroke-width="0.7" opacity="0.034"/>
  <line x1="345.6" y1="32.9" x2="415.2" y2="72.7" stroke-width="0.7" opacity="0.106" class="e1"/>
  <line x1="426.4" y1="253.9" x2="353.7" y2="248.2" stroke-width="0.7" opacity="0.128"/>
  <line x1="426.4" y1="253.9" x2="433.5" y2="244.9" stroke-width="0.7" opacity="0.315"/>
  <line x1="426.4" y1="253.9" x2="472.0" y2="266.6" stroke-width="0.7" opacity="0.206" class="e4"/>
  <line x1="218.2" y1="166.6" x2="332.0" y2="175.9" stroke-width="0.7" opacity="0.002"/>
  <line x1="218.2" y1="166.6" x2="295.3" y2="94.2" stroke-width="0.7" opacity="0.028"/>
  <line x1="218.2" y1="166.6" x2="213.5" y2="168.2" stroke-width="0.7" opacity="0.335" class="e3"/>
  <line x1="218.2" y1="166.6" x2="151.1" y2="157.5" stroke-width="0.7" opacity="0.144"/>
  <line x1="218.2" y1="166.6" x2="183.3" y2="208.4" stroke-width="0.7" opacity="0.184"/>
  <line x1="218.2" y1="166.6" x2="124.1" y2="109.2" stroke-width="0.7" opacity="0.015" class="e2"/>
  <line x1="218.2" y1="166.6" x2="145.0" y2="240.1" stroke-width="0.7" opacity="0.034"/>
  <line x1="344.1" y1="74.2" x2="332.0" y2="175.9" stroke-width="0.7" opacity="0.038"/>
  <line x1="344.1" y1="74.2" x2="295.3" y2="94.2" stroke-width="0.7" opacity="0.189" class="e1"/>
  <line x1="344.1" y1="74.2" x2="417.6" y2="45.2" stroke-width="0.7" opacity="0.109"/>
  <line x1="344.1" y1="74.2" x2="384.7" y2="128.9" stroke-width="0.7" opacity="0.143"/>
  <line x1="344.1" y1="74.2" x2="415.2" y2="72.7" stroke-width="0.7" opacity="0.134" class="e4"/>
  <line x1="53.8" y1="44.6" x2="67.8" y2="20.7" stroke-width="0.7" opacity="0.266"/>
  <line x1="53.8" y1="44.6" x2="73.4" y2="79.3" stroke-width="0.7" opacity="0.229"/>
  <line x1="53.8" y1="44.6" x2="16.8" y2="120.4" stroke-width="0.7" opacity="0.093" class="e3"/>
  <line x1="53.8" y1="44.6" x2="47.7" y2="37.1" stroke-width="0.7" opacity="0.321"/>
  <line x1="53.8" y1="44.6" x2="124.1" y2="109.2" stroke-width="0.7" opacity="0.059"/>
  <line x1="332.0" y1="175.9" x2="295.3" y2="94.2" stroke-width="0.7" opacity="0.078" class="e2"/>
  <line x1="332.0" y1="175.9" x2="353.7" y2="248.2" stroke-width="0.7" opacity="0.12"/>
  <line x1="332.0" y1="175.9" x2="384.7" y2="128.9" stroke-width="0.7" opacity="0.135"/>
  <line x1="724.3" y1="18.1" x2="736.7" y2="86.1" stroke-width="0.7" opacity="0.14" class="e1"/>
  <line x1="724.3" y1="18.1" x2="680.4" y2="66.4" stroke-width="0.7" opacity="0.151"/>
  <line x1="295.3" y1="94.2" x2="213.5" y2="168.2" stroke-width="0.7" opacity="0.014"/>
  <line x1="295.3" y1="94.2" x2="384.7" y2="128.9" stroke-width="0.7" opacity="0.058" class="e4"/>
  <line x1="295.3" y1="94.2" x2="208.8" y2="47.4" stroke-width="0.7" opacity="0.051"/>
  <line x1="736.7" y1="86.1" x2="820.9" y2="158.8" stroke-width="0.7" opacity="0.012"/>
  <line x1="736.7" y1="86.1" x2="680.4" y2="66.4" stroke-width="0.7" opacity="0.168" class="e3"/>
  <line x1="102.7" y1="183.8" x2="213.5" y2="168.2" stroke-width="0.7" opacity="0.009"/>
  <line x1="102.7" y1="183.8" x2="151.1" y2="157.5" stroke-width="0.7" opacity="0.182"/>
  <line x1="102.7" y1="183.8" x2="73.4" y2="79.3" stroke-width="0.7" opacity="0.019" class="e2"/>
  <line x1="102.7" y1="183.8" x2="77.1" y2="233.2" stroke-width="0.7" opacity="0.181"/>
  <line x1="102.7" y1="183.8" x2="16.8" y2="120.4" stroke-width="0.7" opacity="0.025"/>
  <line x1="102.7" y1="183.8" x2="62.1" y2="172.7" stroke-width="0.7" opacity="0.222" class="e1"/>
  <line x1="102.7" y1="183.8" x2="183.3" y2="208.4" stroke-width="0.7" opacity="0.093"/>
  <line x1="102.7" y1="183.8" x2="124.1" y2="109.2" stroke-width="0.7" opacity="0.114"/>
  <line x1="102.7" y1="183.8" x2="145.0" y2="240.1" stroke-width="0.7" opacity="0.136" class="e4"/>
  <line x1="643.3" y1="160.6" x2="637.3" y2="201.3" stroke-width="0.7" opacity="0.225"/>
  <line x1="643.3" y1="160.6" x2="550.5" y2="133.3" stroke-width="0.7" opacity="0.056"/>
  <line x1="643.3" y1="160.6" x2="611.0" y2="253.2" stroke-width="0.7" opacity="0.052" class="e3"/>
  <line x1="643.3" y1="160.6" x2="680.4" y2="66.4" stroke-width="0.7" opacity="0.042"/>
  <line x1="643.3" y1="160.6" x2="615.0" y2="231.2" stroke-width="0.7" opacity="0.119"/>
  <line x1="643.3" y1="160.6" x2="589.0" y2="212.2" stroke-width="0.7" opacity="0.122" class="e2"/>
  <line x1="643.3" y1="160.6" x2="546.9" y2="138.5" stroke-width="0.7" opacity="0.049"/>
  <line x1="417.6" y1="45.2" x2="384.7" y2="128.9" stroke-width="0.7" opacity="0.076"/>
  <line x1="417.6" y1="45.2" x2="415.2" y2="72.7" stroke-width="0.7" opacity="0.266" class="e1"/>
  <line x1="213.5" y1="168.2" x2="151.1" y2="157.5" stroke-width="0.7" opacity="0.157"/>
  <line x1="213.5" y1="168.2" x2="183.3" y2="208.4" stroke-width="0.7" opacity="0.197"/>
  <line x1="213.5" y1="168.2" x2="124.1" y2="109.2" stroke-width="0.7" opacity="0.024" class="e4"/>
  <line x1="213.5" y1="168.2" x2="145.0" y2="240.1" stroke-width="0.7" opacity="0.048"/>
  <line x1="820.9" y1="158.8" x2="838.4" y2="240.7" stroke-width="0.7" opacity="0.095"/>
  <line x1="151.1" y1="157.5" x2="73.4" y2="79.3" stroke-width="0.7" opacity="0.015" class="e3"/>
  <line x1="151.1" y1="157.5" x2="77.1" y2="233.2" stroke-width="0.7" opacity="0.028"/>
  <line x1="151.1" y1="157.5" x2="62.1" y2="172.7" stroke-width="0.7" opacity="0.075"/>
  <line x1="151.1" y1="157.5" x2="183.3" y2="208.4" stroke-width="0.7" opacity="0.167" class="e2"/>
  <line x1="151.1" y1="157.5" x2="124.1" y2="109.2" stroke-width="0.7" opacity="0.182"/>
  <line x1="151.1" y1="157.5" x2="145.0" y2="240.1" stroke-width="0.7" opacity="0.098"/>
  <line x1="637.3" y1="201.3" x2="550.5" y2="133.3" stroke-width="0.7" opacity="0.014" class="e1"/>
  <line x1="637.3" y1="201.3" x2="611.0" y2="253.2" stroke-width="0.7" opacity="0.173"/>
  <line x1="637.3" y1="201.3" x2="615.0" y2="231.2" stroke-width="0.7" opacity="0.237"/>
  <line x1="637.3" y1="201.3" x2="589.0" y2="212.2" stroke-width="0.7" opacity="0.199" class="e4"/>
  <line x1="637.3" y1="201.3" x2="546.9" y2="138.5" stroke-width="0.7" opacity="0.015"/>
  <line x1="550.5" y1="133.3" x2="598.3" y2="30.9" stroke-width="0.7" opacity="0.006"/>
  <line x1="550.5" y1="133.3" x2="589.0" y2="212.2" stroke-width="0.7" opacity="0.083" class="e3"/>
  <line x1="550.5" y1="133.3" x2="546.9" y2="138.5" stroke-width="0.7" opacity="0.331"/>
  <line x1="550.5" y1="133.3" x2="526.8" y2="167.0" stroke-width="0.7" opacity="0.225"/>
  <line x1="67.8" y1="20.7" x2="73.4" y2="79.3" stroke-width="0.7" opacity="0.171" class="e2"/>
  <line x1="67.8" y1="20.7" x2="16.8" y2="120.4" stroke-width="0.7" opacity="0.009"/>
  <line x1="67.8" y1="20.7" x2="47.7" y2="37.1" stroke-width="0.7" opacity="0.271"/>
  <line x1="67.8" y1="20.7" x2="124.1" y2="109.2" stroke-width="0.7" opacity="0.03" class="e1"/>
  <line x1="598.3" y1="30.9" x2="680.4" y2="66.4" stroke-width="0.7" opacity="0.078"/>
  <line x1="73.4" y1="79.3" x2="16.8" y2="120.4" stroke-width="0.7" opacity="0.137"/>
  <line x1="73.4" y1="79.3" x2="62.1" y2="172.7" stroke-width="0.7" opacity="0.063" class="e4"/>
  <line x1="73.4" y1="79.3" x2="47.7" y2="37.1" stroke-width="0.7" opacity="0.2"/>
  <line x1="73.4" y1="79.3" x2="124.1" y2="109.2" stroke-width="0.7" opacity="0.171"/>
  <line x1="611.0" y1="253.2" x2="615.0" y2="231.2" stroke-width="0.7" opacity="0.282" class="e3"/>
  <line x1="611.0" y1="253.2" x2="589.0" y2="212.2" stroke-width="0.7" opacity="0.208"/>
  <line x1="353.7" y1="248.2" x2="259.5" y2="276.6" stroke-width="0.7" opacity="0.05"/>
  <line x1="353.7" y1="248.2" x2="433.5" y2="244.9" stroke-width="0.7" opacity="0.107" class="e2"/>
  <line x1="615.0" y1="231.2" x2="589.0" y2="212.2" stroke-width="0.7" opacity="0.252"/>
  <line x1="615.0" y1="231.2" x2="526.8" y2="167.0" stroke-width="0.7" opacity="0.018"/>
  <line x1="384.7" y1="128.9" x2="415.2" y2="72.7" stroke-width="0.7" opacity="0.155" class="e1"/>
  <line x1="77.1" y1="233.2" x2="62.1" y2="172.7" stroke-width="0.7" opacity="0.16"/>
  <line x1="77.1" y1="233.2" x2="183.3" y2="208.4" stroke-width="0.7" opacity="0.018"/>
  <line x1="77.1" y1="233.2" x2="145.0" y2="240.1" stroke-width="0.7" opacity="0.142" class="e4"/>
  <line x1="16.8" y1="120.4" x2="62.1" y2="172.7" stroke-width="0.7" opacity="0.139"/>
  <line x1="16.8" y1="120.4" x2="47.7" y2="37.1" stroke-width="0.7" opacity="0.08"/>
  <line x1="16.8" y1="120.4" x2="124.1" y2="109.2" stroke-width="0.7" opacity="0.021" class="e3"/>
  <line x1="589.0" y1="212.2" x2="546.9" y2="138.5" stroke-width="0.7" opacity="0.091"/>
  <line x1="589.0" y1="212.2" x2="526.8" y2="167.0" stroke-width="0.7" opacity="0.116"/>
  <line x1="259.5" y1="276.6" x2="183.3" y2="208.4" stroke-width="0.7" opacity="0.039" class="e2"/>
  <line x1="62.1" y1="172.7" x2="124.1" y2="109.2" stroke-width="0.7" opacity="0.08"/>
  <line x1="62.1" y1="172.7" x2="145.0" y2="240.1" stroke-width="0.7" opacity="0.025"/>
  <line x1="433.5" y1="244.9" x2="472.0" y2="266.6" stroke-width="0.7" opacity="0.215" class="e1"/>
  <line x1="208.8" y1="47.4" x2="124.1" y2="109.2" stroke-width="0.7" opacity="0.031"/>
  <line x1="47.7" y1="37.1" x2="124.1" y2="109.2" stroke-width="0.7" opacity="0.03"/>
  <line x1="183.3" y1="208.4" x2="145.0" y2="240.1" stroke-width="0.7" opacity="0.199" class="e4"/>
  <line x1="546.9" y1="138.5" x2="526.8" y2="167.0" stroke-width="0.7" opacity="0.244"/>
  <line x1="526.8" y1="167.0" x2="472.0" y2="266.6" stroke-width="0.7" opacity="0.004"/>
</g>
<circle cx="541.9" cy="21.8" r="2.0" fill="#378ADD" opacity="0.85" class="n4 node-glow" style="animation-delay:0.4s,0.9s"/>
<circle cx="99.5" cy="215.0" r="2.4" fill="#378ADD" opacity="0.85" class="n7 node-glow" style="animation-delay:0.1s,0.6s"/>
<circle cx="92.2" cy="77.8" r="2.5" fill="#378ADD" opacity="0.85" class="n4 node-glow" style="animation-delay:2.1s,2.6s"/>
<circle cx="592.9" cy="128.3" r="2.3" fill="#378ADD" opacity="0.85" class="n5 node-glow" style="animation-delay:2.4s,2.9s"/>
<circle cx="20.4" cy="232.6" r="2.7" fill="#378ADD" opacity="0.85" class="n6 node-glow" style="animation-delay:0.8s,1.3s"/>
<circle cx="192.4" cy="221.1" r="1.7" fill="#378ADD" opacity="0.85" class="n7 node-glow" style="animation-delay:0.3s,0.8s"/>
<circle cx="713.3" cy="178.0" r="2.9" fill="#378ADD" opacity="0.85" class="n8 node-glow" style="animation-delay:1.6s,2.1s"/>
<circle cx="816.8" cy="117.2" r="2.4" fill="#378ADD" opacity="0.85" class="n6 node-glow" style="animation-delay:1.7s,2.2s"/>
<circle cx="595.6" cy="27.4" r="1.9" fill="#378ADD" opacity="0.85" class="n5 node-glow" style="animation-delay:3.0s,3.5s"/>
<circle cx="719.8" cy="249.0" r="2.1" fill="#378ADD" opacity="0.85" class="n8 node-glow" style="animation-delay:1.9s,2.4s"/>
<circle cx="315.6" cy="114.9" r="1.9" fill="#378ADD" opacity="0.85" class="n5 node-glow" style="animation-delay:2.1s,2.6s"/>
<circle cx="578.2" cy="34.3" r="2.6" fill="#378ADD" opacity="0.85" class="n4 node-glow" style="animation-delay:0.5s,1.0s"/>
<circle cx="327.7" cy="282.2" r="2.6" fill="#378ADD" opacity="0.85" class="n4 node-glow" style="animation-delay:2.1s,2.6s"/>
<circle cx="709.5" cy="224.5" r="1.9" fill="#378ADD" opacity="0.85" class="n1 node-glow" style="animation-delay:2.4s,2.9s"/>
<circle cx="345.6" cy="32.9" r="3.1" fill="#378ADD" opacity="0.85" class="n6 node-glow" style="animation-delay:0.6s,1.1s"/>
<circle cx="426.4" cy="253.9" r="2.6" fill="#378ADD" opacity="0.85" class="n3 node-glow" style="animation-delay:0.8s,1.3s"/>
<circle cx="218.2" cy="166.6" r="1.9" fill="#378ADD" opacity="0.85" class="n7 node-glow" style="animation-delay:2.7s,3.2s"/>
<circle cx="344.1" cy="74.2" r="3.2" fill="#378ADD" opacity="0.85" class="n8 node-glow" style="animation-delay:0.3s,0.8s"/>
<circle cx="53.8" cy="44.6" r="2.6" fill="#378ADD" opacity="0.85" class="n7 node-glow" style="animation-delay:1.8s,2.3s"/>
<circle cx="332.0" cy="175.9" r="2.3" fill="#378ADD" opacity="0.85" class="n5 node-glow" style="animation-delay:2.9s,3.4s"/>
<circle cx="724.3" cy="18.1" r="2.7" fill="#378ADD" opacity="0.85" class="n5 node-glow" style="animation-delay:2.3s,2.8s"/>
<circle cx="295.3" cy="94.2" r="1.8" fill="#378ADD" opacity="0.85" class="n1 node-glow" style="animation-delay:2.9s,3.4s"/>
<circle cx="736.7" cy="86.1" r="2.4" fill="#378ADD" opacity="0.85" class="n3 node-glow" style="animation-delay:1.5s,2.0s"/>
<circle cx="102.7" cy="183.8" r="2.9" fill="#378ADD" opacity="0.85" class="n4 node-glow" style="animation-delay:0.5s,1.0s"/>
<circle cx="643.3" cy="160.6" r="2.8" fill="#378ADD" opacity="0.85" class="n1 node-glow" style="animation-delay:1.8s,2.3s"/>
<circle cx="417.6" cy="45.2" r="2.1" fill="#378ADD" opacity="0.85" class="n5 node-glow" style="animation-delay:0.7s,1.2s"/>
<circle cx="213.5" cy="168.2" r="1.6" fill="#378ADD" opacity="0.85" class="n8 node-glow" style="animation-delay:2.4s,2.9s"/>
<circle cx="820.9" cy="158.8" r="1.7" fill="#378ADD" opacity="0.85" class="n8 node-glow" style="animation-delay:2.8s,3.3s"/>
<circle cx="151.1" cy="157.5" r="2.5" fill="#378ADD" opacity="0.85" class="n4 node-glow" style="animation-delay:2.8s,3.3s"/>
<circle cx="637.3" cy="201.3" r="2.7" fill="#378ADD" opacity="0.85" class="n7 node-glow" style="animation-delay:3.0s,3.5s"/>
<circle cx="550.5" cy="133.3" r="2.4" fill="#378ADD" opacity="0.85" class="n2 node-glow" style="animation-delay:0.7s,1.2s"/>
<circle cx="67.8" cy="20.7" r="2.4" fill="#378ADD" opacity="0.85" class="n4 node-glow" style="animation-delay:0.0s,0.5s"/>
<circle cx="598.3" cy="30.9" r="1.6" fill="#378ADD" opacity="0.85" class="n1 node-glow" style="animation-delay:2.6s,3.1s"/>
<circle cx="73.4" cy="79.3" r="2.6" fill="#378ADD" opacity="0.85" class="n4 node-glow" style="animation-delay:1.6s,2.1s"/>
<circle cx="611.0" cy="253.2" r="2.5" fill="#378ADD" opacity="0.85" class="n4 node-glow" style="animation-delay:2.4s,2.9s"/>
<circle cx="680.4" cy="66.4" r="1.7" fill="#378ADD" opacity="0.85" class="n7 node-glow" style="animation-delay:1.1s,1.6s"/>
<circle cx="353.7" cy="248.2" r="1.6" fill="#378ADD" opacity="0.85" class="n2 node-glow" style="animation-delay:0.2s,0.7s"/>
<circle cx="615.0" cy="231.2" r="1.7" fill="#378ADD" opacity="0.85" class="n4 node-glow" style="animation-delay:0.6s,1.1s"/>
<circle cx="384.7" cy="128.9" r="2.0" fill="#378ADD" opacity="0.85" class="n4 node-glow" style="animation-delay:2.6s,3.1s"/>
<circle cx="77.1" cy="233.2" r="3.0" fill="#378ADD" opacity="0.85" class="n2 node-glow" style="animation-delay:0.2s,0.7s"/>
<circle cx="838.4" cy="240.7" r="3.1" fill="#378ADD" opacity="0.85" class="n4 node-glow" style="animation-delay:0.5s,1.0s"/>
<circle cx="415.2" cy="72.7" r="2.2" fill="#378ADD" opacity="0.85" class="n1 node-glow" style="animation-delay:0.5s,1.0s"/>
<circle cx="16.8" cy="120.4" r="3.1" fill="#378ADD" opacity="0.85" class="n8 node-glow" style="animation-delay:0.9s,1.4s"/>
<circle cx="589.0" cy="212.2" r="2.8" fill="#378ADD" opacity="0.85" class="n8 node-glow" style="animation-delay:0.5s,1.0s"/>
<circle cx="259.5" cy="276.6" r="2.5" fill="#378ADD" opacity="0.85" class="n1 node-glow" style="animation-delay:2.2s,2.7s"/>
<circle cx="62.1" cy="172.7" r="2.4" fill="#378ADD" opacity="0.85" class="n3 node-glow" style="animation-delay:0.2s,0.7s"/>
<circle cx="433.5" cy="244.9" r="1.6" fill="#378ADD" opacity="0.85" class="n2 node-glow" style="animation-delay:2.0s,2.5s"/>
<circle cx="208.8" cy="47.4" r="3.0" fill="#378ADD" opacity="0.85" class="n4 node-glow" style="animation-delay:1.7s,2.2s"/>
<circle cx="47.7" cy="37.1" r="2.6" fill="#378ADD" opacity="0.85" class="n6 node-glow" style="animation-delay:2.8s,3.3s"/>
<circle cx="183.3" cy="208.4" r="1.9" fill="#378ADD" opacity="0.85" class="n7 node-glow" style="animation-delay:0.4s,0.9s"/>
<circle cx="546.9" cy="138.5" r="3.1" fill="#378ADD" opacity="0.85" class="n2 node-glow" style="animation-delay:0.0s,0.5s"/>
<circle cx="526.8" cy="167.0" r="1.7" fill="#378ADD" opacity="0.85" class="n4 node-glow" style="animation-delay:1.5s,2.0s"/>
<circle cx="124.1" cy="109.2" r="1.6" fill="#378ADD" opacity="0.85" class="n4 node-glow" style="animation-delay:1.1s,1.6s"/>
<circle cx="145.0" cy="240.1" r="2.7" fill="#378ADD" opacity="0.85" class="n1 node-glow" style="animation-delay:2.0s,2.5s"/>
<circle cx="472.0" cy="266.6" r="1.7" fill="#378ADD" opacity="0.85" class="n3 node-glow" style="animation-delay:0.8s,1.3s"/>
<text x="427.0" y="128.0" text-anchor="middle" font-family="system-ui, -apple-system, Segoe UI, sans-serif" font-size="36" font-weight="600" fill="rgba(255,255,255,0.94)">Muhammad Rakeh Saleem, PhD</text>
<text x="427.0" y="164.0" text-anchor="middle" font-family="system-ui, -apple-system, Segoe UI, sans-serif" font-size="15" font-weight="400" fill="rgba(55,138,221,0.9)">Senior Data Scientist  ·  AI Architect  ·  Computer Vision</text>
<text x="427.0" y="188.0" text-anchor="middle" font-family="system-ui, -apple-system, Segoe UI, sans-serif" font-size="12.5" font-weight="400" fill="rgba(140,180,220,0.65)">GA Telesis  ·  Predictive Logistics  ·  SHM</text>
</svg>